G04 #@! TF.GenerationSoftware,KiCad,Pcbnew,(5.1.4-0-10_14)*
G04 #@! TF.CreationDate,2021-03-27T12:50:17+13:00*
G04 #@! TF.ProjectId,incur_board,696e6375-725f-4626-9f61-72642e6b6963,rev?*
G04 #@! TF.SameCoordinates,Original*
G04 #@! TF.FileFunction,Legend,Bot*
G04 #@! TF.FilePolarity,Positive*
%FSLAX46Y46*%
G04 Gerber Fmt 4.6, Leading zero omitted, Abs format (unit mm)*
G04 Created by KiCad (PCBNEW (5.1.4-0-10_14)) date 2021-03-27 12:50:17*
%MOMM*%
%LPD*%
G04 APERTURE LIST*
%ADD10C,0.500000*%
%ADD11C,0.300000*%
G04 APERTURE END LIST*
D10*
X153000000Y-48338095D02*
X149190476Y-48338095D01*
X148714285Y-43338095D02*
X147761904Y-42623809D01*
X146809523Y-43338095D01*
X140380952Y-42861904D02*
X139904761Y-42861904D01*
X139428571Y-43100000D01*
X139190476Y-43338095D01*
X138952380Y-43814285D01*
X138714285Y-44766666D01*
X138714285Y-45957142D01*
X138952380Y-46909523D01*
X139190476Y-47385714D01*
X139428571Y-47623809D01*
X139904761Y-47861904D01*
X140380952Y-47861904D01*
X140857142Y-47623809D01*
X141095238Y-47385714D01*
X141333333Y-46909523D01*
X141571428Y-45957142D01*
X141571428Y-44766666D01*
X141333333Y-43814285D01*
X141095238Y-43338095D01*
X140857142Y-43100000D01*
X140380952Y-42861904D01*
X136809523Y-43338095D02*
X136571428Y-43100000D01*
X136095238Y-42861904D01*
X134904761Y-42861904D01*
X134428571Y-43100000D01*
X134190476Y-43338095D01*
X133952380Y-43814285D01*
X133952380Y-44290476D01*
X134190476Y-45004761D01*
X137047619Y-47861904D01*
X133952380Y-47861904D01*
D11*
X152185714Y-50478571D02*
X152185714Y-51478571D01*
X152828571Y-50478571D02*
X152828571Y-51264285D01*
X152757142Y-51407142D01*
X152614285Y-51478571D01*
X152400000Y-51478571D01*
X152257142Y-51407142D01*
X152185714Y-51335714D01*
X151471428Y-50478571D02*
X151471428Y-51478571D01*
X151471428Y-50621428D02*
X151400000Y-50550000D01*
X151257142Y-50478571D01*
X151042857Y-50478571D01*
X150900000Y-50550000D01*
X150828571Y-50692857D01*
X150828571Y-51478571D01*
X149471428Y-51478571D02*
X149471428Y-49978571D01*
X149471428Y-51407142D02*
X149614285Y-51478571D01*
X149900000Y-51478571D01*
X150042857Y-51407142D01*
X150114285Y-51335714D01*
X150185714Y-51192857D01*
X150185714Y-50764285D01*
X150114285Y-50621428D01*
X150042857Y-50550000D01*
X149900000Y-50478571D01*
X149614285Y-50478571D01*
X149471428Y-50550000D01*
X148185714Y-51407142D02*
X148328571Y-51478571D01*
X148614285Y-51478571D01*
X148757142Y-51407142D01*
X148828571Y-51264285D01*
X148828571Y-50692857D01*
X148757142Y-50550000D01*
X148614285Y-50478571D01*
X148328571Y-50478571D01*
X148185714Y-50550000D01*
X148114285Y-50692857D01*
X148114285Y-50835714D01*
X148828571Y-50978571D01*
X147471428Y-51478571D02*
X147471428Y-50478571D01*
X147471428Y-50764285D02*
X147400000Y-50621428D01*
X147328571Y-50550000D01*
X147185714Y-50478571D01*
X147042857Y-50478571D01*
X146614285Y-51407142D02*
X146471428Y-51478571D01*
X146185714Y-51478571D01*
X146042857Y-51407142D01*
X145971428Y-51264285D01*
X145971428Y-51192857D01*
X146042857Y-51050000D01*
X146185714Y-50978571D01*
X146400000Y-50978571D01*
X146542857Y-50907142D01*
X146614285Y-50764285D01*
X146614285Y-50692857D01*
X146542857Y-50550000D01*
X146400000Y-50478571D01*
X146185714Y-50478571D01*
X146042857Y-50550000D01*
X144685714Y-51407142D02*
X144828571Y-51478571D01*
X145114285Y-51478571D01*
X145257142Y-51407142D01*
X145328571Y-51335714D01*
X145400000Y-51192857D01*
X145400000Y-50764285D01*
X145328571Y-50621428D01*
X145257142Y-50550000D01*
X145114285Y-50478571D01*
X144828571Y-50478571D01*
X144685714Y-50550000D01*
X143828571Y-51478571D02*
X143971428Y-51407142D01*
X144042857Y-51335714D01*
X144114285Y-51192857D01*
X144114285Y-50764285D01*
X144042857Y-50621428D01*
X143971428Y-50550000D01*
X143828571Y-50478571D01*
X143614285Y-50478571D01*
X143471428Y-50550000D01*
X143400000Y-50621428D01*
X143328571Y-50764285D01*
X143328571Y-51192857D01*
X143400000Y-51335714D01*
X143471428Y-51407142D01*
X143614285Y-51478571D01*
X143828571Y-51478571D01*
X142685714Y-51478571D02*
X142685714Y-50478571D01*
X142685714Y-50764285D02*
X142614285Y-50621428D01*
X142542857Y-50550000D01*
X142400000Y-50478571D01*
X142257142Y-50478571D01*
X141185714Y-51407142D02*
X141328571Y-51478571D01*
X141614285Y-51478571D01*
X141757142Y-51407142D01*
X141828571Y-51264285D01*
X141828571Y-50692857D01*
X141757142Y-50550000D01*
X141614285Y-50478571D01*
X141328571Y-50478571D01*
X141185714Y-50550000D01*
X141114285Y-50692857D01*
X141114285Y-50835714D01*
X141828571Y-50978571D01*
X140542857Y-51407142D02*
X140400000Y-51478571D01*
X140114285Y-51478571D01*
X139971428Y-51407142D01*
X139900000Y-51264285D01*
X139900000Y-51192857D01*
X139971428Y-51050000D01*
X140114285Y-50978571D01*
X140328571Y-50978571D01*
X140471428Y-50907142D01*
X140542857Y-50764285D01*
X140542857Y-50692857D01*
X140471428Y-50550000D01*
X140328571Y-50478571D01*
X140114285Y-50478571D01*
X139971428Y-50550000D01*
X139257142Y-51335714D02*
X139185714Y-51407142D01*
X139257142Y-51478571D01*
X139328571Y-51407142D01*
X139257142Y-51335714D01*
X139257142Y-51478571D01*
X138614285Y-51407142D02*
X138471428Y-51478571D01*
X138185714Y-51478571D01*
X138042857Y-51407142D01*
X137971428Y-51264285D01*
X137971428Y-51192857D01*
X138042857Y-51050000D01*
X138185714Y-50978571D01*
X138400000Y-50978571D01*
X138542857Y-50907142D01*
X138614285Y-50764285D01*
X138614285Y-50692857D01*
X138542857Y-50550000D01*
X138400000Y-50478571D01*
X138185714Y-50478571D01*
X138042857Y-50550000D01*
X137328571Y-51478571D02*
X137328571Y-49978571D01*
X136685714Y-51478571D02*
X136685714Y-50692857D01*
X136757142Y-50550000D01*
X136900000Y-50478571D01*
X137114285Y-50478571D01*
X137257142Y-50550000D01*
X137328571Y-50621428D01*
X135757142Y-51478571D02*
X135900000Y-51407142D01*
X135971428Y-51335714D01*
X136042857Y-51192857D01*
X136042857Y-50764285D01*
X135971428Y-50621428D01*
X135900000Y-50550000D01*
X135757142Y-50478571D01*
X135542857Y-50478571D01*
X135400000Y-50550000D01*
X135328571Y-50621428D01*
X135257142Y-50764285D01*
X135257142Y-51192857D01*
X135328571Y-51335714D01*
X135400000Y-51407142D01*
X135542857Y-51478571D01*
X135757142Y-51478571D01*
X134614285Y-50478571D02*
X134614285Y-51978571D01*
X134614285Y-50550000D02*
X134471428Y-50478571D01*
X134185714Y-50478571D01*
X134042857Y-50550000D01*
X133971428Y-50621428D01*
X133900000Y-50764285D01*
X133900000Y-51192857D01*
X133971428Y-51335714D01*
X134042857Y-51407142D01*
X134185714Y-51478571D01*
X134471428Y-51478571D01*
X134614285Y-51407142D01*
M02*
