G04 #@! TF.GenerationSoftware,KiCad,Pcbnew,(5.1.4-0-10_14)*
G04 #@! TF.CreationDate,2021-03-27T12:50:17+13:00*
G04 #@! TF.ProjectId,incur_board,696e6375-725f-4626-9f61-72642e6b6963,rev?*
G04 #@! TF.SameCoordinates,Original*
G04 #@! TF.FileFunction,Soldermask,Top*
G04 #@! TF.FilePolarity,Negative*
%FSLAX46Y46*%
G04 Gerber Fmt 4.6, Leading zero omitted, Abs format (unit mm)*
G04 Created by KiCad (PCBNEW (5.1.4-0-10_14)) date 2021-03-27 12:50:17*
%MOMM*%
%LPD*%
G04 APERTURE LIST*
%ADD10R,2.100000X2.100000*%
%ADD11O,2.100000X2.100000*%
%ADD12R,2.000000X2.000000*%
%ADD13O,2.000000X2.000000*%
%ADD14O,3.200000X2.750000*%
%ADD15R,3.000000X2.550000*%
%ADD16C,3.100000*%
%ADD17C,2.500000*%
%ADD18R,2.500000X2.500000*%
%ADD19C,3.400000*%
%ADD20C,2.950000*%
%ADD21C,2.000000*%
%ADD22C,2.200000*%
%ADD23C,4.400000*%
%ADD24R,2.800000X2.000000*%
%ADD25O,2.800000X2.000000*%
%ADD26C,3.600000*%
G04 APERTURE END LIST*
D10*
X154100000Y-98200000D03*
D11*
X154100000Y-100740000D03*
X151560000Y-98200000D03*
X151560000Y-100740000D03*
X149020000Y-98200000D03*
X149020000Y-100740000D03*
X146480000Y-98200000D03*
X146480000Y-100740000D03*
X143940000Y-98200000D03*
X143940000Y-100740000D03*
X141400000Y-98200000D03*
X141400000Y-100740000D03*
X138860000Y-98200000D03*
X138860000Y-100740000D03*
X136320000Y-98200000D03*
X136320000Y-100740000D03*
X133780000Y-98200000D03*
X133780000Y-100740000D03*
X131240000Y-98200000D03*
X131240000Y-100740000D03*
X128700000Y-98200000D03*
X128700000Y-100740000D03*
X126160000Y-98200000D03*
X126160000Y-100740000D03*
X123620000Y-98200000D03*
X123620000Y-100740000D03*
X121080000Y-98200000D03*
X121080000Y-100740000D03*
X118540000Y-98200000D03*
X118540000Y-100740000D03*
X116000000Y-98200000D03*
X116000000Y-100740000D03*
X113460000Y-98200000D03*
X113460000Y-100740000D03*
X110920000Y-98200000D03*
X110920000Y-100740000D03*
X108380000Y-98200000D03*
X108380000Y-100740000D03*
X105840000Y-98200000D03*
X105840000Y-100740000D03*
D12*
X72200000Y-110800000D03*
D13*
X72200000Y-115880000D03*
D12*
X75500000Y-125000000D03*
D13*
X75500000Y-130080000D03*
D12*
X92000000Y-110600000D03*
D13*
X92000000Y-115680000D03*
D12*
X93000000Y-124000000D03*
D13*
X93000000Y-129080000D03*
D12*
X148400000Y-110400000D03*
D13*
X148400000Y-115480000D03*
D12*
X146000000Y-124500000D03*
D13*
X146000000Y-129580000D03*
D12*
X163500000Y-110500000D03*
D13*
X163500000Y-115580000D03*
D12*
X164500000Y-124500000D03*
D13*
X164500000Y-129580000D03*
D12*
X141250000Y-77350000D03*
D13*
X141250000Y-82430000D03*
D14*
X84000000Y-108600000D03*
D15*
X84000000Y-105500000D03*
D16*
X84000000Y-116900000D03*
D14*
X103000000Y-108900000D03*
D15*
X103000000Y-105800000D03*
D16*
X103000000Y-117200000D03*
D14*
X137000000Y-108800000D03*
D15*
X137000000Y-105700000D03*
D16*
X137000000Y-117100000D03*
D17*
X125500000Y-115000000D03*
D18*
X114500000Y-115000000D03*
D17*
X120000000Y-109500000D03*
X120000000Y-119500000D03*
X116110000Y-111110000D03*
X123890000Y-111110000D03*
D10*
X124500000Y-126000000D03*
D19*
X114850000Y-133000000D03*
X125150000Y-133000000D03*
D20*
X120000000Y-131400000D03*
D21*
X84500000Y-121000000D03*
D13*
X76880000Y-121000000D03*
D21*
X104000000Y-121000000D03*
D13*
X96380000Y-121000000D03*
D21*
X136500000Y-121000000D03*
D13*
X144120000Y-121000000D03*
D21*
X156500000Y-121000000D03*
D13*
X164120000Y-121000000D03*
D21*
X144100000Y-91300000D03*
D13*
X136480000Y-91300000D03*
D21*
X142100000Y-73500000D03*
D13*
X149720000Y-73500000D03*
D21*
X147100000Y-91300000D03*
D13*
X154720000Y-91300000D03*
D22*
X86500000Y-125000000D03*
X84000000Y-125000000D03*
X81500000Y-125000000D03*
D23*
X88400000Y-132000000D03*
X79600000Y-132000000D03*
D22*
X105500000Y-124700000D03*
X103000000Y-124700000D03*
X100500000Y-124700000D03*
D23*
X107400000Y-131700000D03*
X98600000Y-131700000D03*
D22*
X139400000Y-124700000D03*
X136900000Y-124700000D03*
X134400000Y-124700000D03*
D23*
X141300000Y-131700000D03*
X132500000Y-131700000D03*
D22*
X158200000Y-124800000D03*
X155700000Y-124800000D03*
X153200000Y-124800000D03*
D23*
X160100000Y-131800000D03*
X151300000Y-131800000D03*
D24*
X112000000Y-75000000D03*
D25*
X119620000Y-92780000D03*
X112000000Y-77540000D03*
X119620000Y-90240000D03*
X112000000Y-80080000D03*
X119620000Y-87700000D03*
X112000000Y-82620000D03*
X119620000Y-85160000D03*
X112000000Y-85160000D03*
X119620000Y-82620000D03*
X112000000Y-87700000D03*
X119620000Y-80080000D03*
X112000000Y-90240000D03*
X119620000Y-77540000D03*
X112000000Y-92780000D03*
X119620000Y-75000000D03*
D24*
X145800000Y-77650000D03*
D25*
X153420000Y-85270000D03*
X145800000Y-80190000D03*
X153420000Y-82730000D03*
X145800000Y-82730000D03*
X153420000Y-80190000D03*
X145800000Y-85270000D03*
X153420000Y-77650000D03*
D26*
X73500000Y-43500000D03*
X166500000Y-43500000D03*
X73500000Y-136500000D03*
X166200000Y-136100000D03*
X101000000Y-50500000D03*
X159000000Y-50500000D03*
X159000000Y-99500000D03*
X101000000Y-99500000D03*
D14*
X156500000Y-108600000D03*
D15*
X156500000Y-105500000D03*
D16*
X156500000Y-116900000D03*
M02*
